<svg xmlns="http://www.w3.org/2000/svg" xmlns:xlink="http://www.w3.org/1999/xlink" id="Camada_1" x="0px" y="0px" viewBox="0 0 1920 180" style="enable-background:new 0 0 1920 180;" xml:space="preserve"><style type="text/css">	.st0{fill:#FFFFFF;}	.st1{fill:#5BC93E;}</style><g>	<polygon class="st0" points="25.3,22.2 10,22.2 10,78.7 47,78.7 47,66.4 25.3,66.4  "></polygon>	<path class="st0" d="M68.4,22L50,78.7h16.8l2.9-10.6H88l2.8,10.6h16.7L88.8,22H68.4z M72.8,55.6l2.4-9.3c0.3-1.2,0.7-2.8,1.2-4.6  c0.5-1.9,0.9-3.7,1.3-5.6c0.4-1.9,0.8-3.5,1-4.8c0.3,1.3,0.6,2.9,1.1,4.9c0.5,2,1,3.9,1.5,5.8c0.5,1.9,0.9,3.3,1.1,4.3l2.4,9.3  H72.8z"></path>	<path class="st0" d="M129,34.1c0.8-0.3,1.9-0.5,3.2-0.5c2,0,4.2,0.3,6.5,1c2.3,0.7,4.7,1.5,7.2,2.6l4.7-11.8c-2.3-1.1-5-2-7.9-2.8  c-3-0.8-6.3-1.2-10-1.2c-4.2,0-7.9,0.6-11.1,1.9c-3.2,1.2-5.7,3.1-7.5,5.5c-1.8,2.5-2.7,5.5-2.7,9.1c0,2.4,0.3,4.5,1,6.3  c0.6,1.8,1.6,3.3,2.8,4.7c1.2,1.3,2.6,2.5,4.3,3.5c1.7,1,3.6,2,5.7,3c2.4,1.1,4.4,2,5.9,2.8c1.5,0.7,2.6,1.5,3.3,2.1  c0.7,0.7,1,1.5,1,2.5c0,0.8-0.2,1.6-0.7,2.2c-0.5,0.6-1.2,1.1-2.1,1.5c-1,0.4-2.2,0.5-3.7,0.5c-2.5,0-5.3-0.4-8.5-1.2  c-3.1-0.8-6.2-2-9.3-3.5v13.6c1.8,0.9,3.5,1.5,5.2,2.1c1.7,0.5,3.5,0.9,5.4,1.1c1.9,0.2,4.2,0.3,6.8,0.3c5.2,0,9.4-0.9,12.6-2.6  c3.3-1.7,5.7-3.9,7.2-6.7c1.5-2.7,2.3-5.7,2.3-8.7c0-2.9-0.5-5.4-1.5-7.4c-1-2-2.5-3.7-4.4-5.1s-4.3-2.8-7-4  c-2.8-1.3-5-2.3-6.6-3.2c-1.6-0.8-2.8-1.6-3.4-2.3c-0.7-0.7-1-1.5-1-2.4c0-0.7,0.2-1.3,0.6-1.9C127.5,34.8,128.1,34.4,129,34.1z"></path>	<path class="st0" d="M217,50.2c1.4-1.5,2.5-3.2,3.3-5c0.8-1.9,1.2-4,1.2-6.3c0-3.7-0.9-6.8-2.6-9.2c-1.7-2.5-4.3-4.3-7.7-5.6  c-3.4-1.3-7.7-1.9-12.8-1.9h-18.5v56.5h15.3V58.1h3.9l12,20.6h17.3l-16.5-24.6C213.8,53,215.5,51.7,217,50.2z M203.8,45.1  c-1.5,1-3.4,1.5-5.8,1.5h-2.9V33.7h3c2.8,0,4.8,0.5,6,1.5c1.2,1,1.9,2.5,1.9,4.3C206,42.2,205.3,44.1,203.8,45.1z"></path>	<polygon class="st0" points="233.5,78.7 267,78.7 267,66.3 248.7,66.3 248.7,55.6 265.7,55.6 265.7,43.3 248.7,43.3 248.7,34.4   267,34.4 267,22.2 233.5,22.2  "></polygon>	<path class="st0" d="M312,25.3c-4.2-2.1-9.4-3.1-15.5-3.1h-19.6v56.5h18.3c6,0,11.2-1.1,15.7-3.3c4.4-2.2,7.9-5.4,10.3-9.8  c2.4-4.4,3.7-9.8,3.7-16.4c0-5.8-1.1-10.7-3.3-14.8C319.4,30.5,316.2,27.4,312,25.3z M305.8,62.1c-2.2,2.7-5.6,4-10.2,4h-3.4V34.5  h4.4c2.8,0,5.1,0.6,6.9,1.7c1.8,1.1,3.2,2.8,4.1,5.1c0.9,2.3,1.4,5.1,1.4,8.5C309.1,55.3,308,59.5,305.8,62.1z"></path>	<polygon class="st0" points="335,78.7 368.6,78.7 368.6,66.3 350.3,66.3 350.3,55.6 367.3,55.6 367.3,43.3 350.3,43.3 350.3,34.4   368.6,34.4 368.6,22.2 335,22.2  "></polygon>	<path class="st0" d="M393.9,34.1c0.8-0.3,1.9-0.5,3.2-0.5c2,0,4.2,0.3,6.5,1c2.3,0.7,4.7,1.5,7.2,2.6l4.7-11.8  c-2.3-1.1-5-2-7.9-2.8c-3-0.8-6.3-1.2-10-1.2c-4.2,0-7.9,0.6-11.1,1.9c-3.2,1.2-5.7,3.1-7.5,5.5c-1.8,2.5-2.7,5.5-2.7,9.1  c0,2.4,0.3,4.5,1,6.3c0.6,1.8,1.6,3.3,2.8,4.7c1.2,1.3,2.6,2.5,4.3,3.5c1.7,1,3.6,2,5.7,3c2.4,1.1,4.4,2,5.9,2.8  c1.5,0.7,2.6,1.5,3.3,2.1c0.7,0.7,1,1.5,1,2.5c0,0.8-0.2,1.6-0.7,2.2c-0.5,0.6-1.2,1.1-2.1,1.5c-1,0.4-2.2,0.5-3.7,0.5  c-2.5,0-5.3-0.4-8.5-1.2c-3.1-0.8-6.2-2-9.3-3.5v13.6c1.8,0.9,3.5,1.5,5.2,2.1c1.7,0.5,3.5,0.9,5.4,1.1c1.9,0.2,4.2,0.3,6.8,0.3  c5.2,0,9.4-0.9,12.6-2.6c3.3-1.7,5.7-3.9,7.2-6.7c1.5-2.7,2.3-5.7,2.3-8.7c0-2.9-0.5-5.4-1.5-7.4c-1-2-2.5-3.7-4.4-5.1  s-4.3-2.8-7-4c-2.8-1.3-5-2.3-6.6-3.2c-1.6-0.8-2.8-1.6-3.4-2.3c-0.7-0.7-1-1.5-1-2.4c0-0.7,0.2-1.3,0.6-1.9  C392.4,34.8,393,34.4,393.9,34.1z"></path>	<path class="st0" d="M480.2,54.1c-1-2-2.5-3.7-4.4-5.1s-4.3-2.8-7-4c-2.8-1.3-5-2.3-6.6-3.2c-1.6-0.8-2.8-1.6-3.4-2.3  c-0.7-0.7-1-1.5-1-2.4c0-0.7,0.2-1.3,0.6-1.9c0.4-0.5,1-1,1.9-1.3c0.8-0.3,1.9-0.5,3.2-0.5c2,0,4.2,0.3,6.5,1  c2.3,0.7,4.7,1.5,7.2,2.6l4.7-11.8c-2.3-1.1-5-2-7.9-2.8c-3-0.8-6.3-1.2-10-1.2c-4.2,0-7.9,0.6-11.1,1.9c-3.2,1.2-5.7,3.1-7.5,5.5  c-1.8,2.5-2.7,5.5-2.7,9.1c0,2.4,0.3,4.5,1,6.3c0.6,1.8,1.6,3.3,2.8,4.7c1.2,1.3,2.6,2.5,4.3,3.5c1.7,1,3.6,2,5.7,3  c2.4,1.1,4.4,2,5.9,2.8c1.5,0.7,2.6,1.5,3.3,2.1c0.7,0.7,1,1.5,1,2.5c0,0.8-0.2,1.6-0.7,2.2c-0.5,0.6-1.2,1.1-2.1,1.5  c-1,0.4-2.2,0.5-3.7,0.5c-2.5,0-5.3-0.4-8.5-1.2c-3.1-0.8-6.2-2-9.3-3.5v13.6c1.8,0.9,3.5,1.5,5.2,2.1c1.7,0.5,3.5,0.9,5.4,1.1  c1.9,0.2,4.2,0.3,6.8,0.3c5.2,0,9.4-0.9,12.6-2.6c3.3-1.7,5.7-3.9,7.2-6.7s2.3-5.7,2.3-8.7C481.8,58.6,481.2,56.1,480.2,54.1z"></path>	<path class="st0" d="M495,71.5c2.2,2.6,5.1,4.5,8.6,5.9c3.5,1.4,7.6,2.1,12.3,2.1c4.8,0,9-0.7,12.5-2.1c3.5-1.4,6.3-3.4,8.5-5.9  c2.2-2.6,3.8-5.7,4.9-9.2c1-3.6,1.6-7.5,1.6-11.9c0-5.9-0.9-11-2.8-15.4c-1.9-4.4-4.8-7.7-8.9-10.1c-4-2.4-9.3-3.6-15.7-3.6  c-6.3,0-11.5,1.2-15.6,3.6c-4.1,2.4-7.1,5.7-9,10.1c-1.9,4.3-2.9,9.5-2.9,15.3c0,4.4,0.5,8.4,1.6,12  C491.1,65.9,492.8,68.9,495,71.5z M505.6,41.6c0.8-2.5,2-4.4,3.7-5.7c1.7-1.3,3.9-2,6.7-2c4.2,0,7.1,1.5,8.8,4.4  c1.7,3,2.6,7,2.6,12.1c0,3.4-0.4,6.3-1.1,8.8c-0.7,2.4-1.9,4.3-3.6,5.6c-1.7,1.3-3.9,2-6.7,2c-2.7,0-4.9-0.7-6.6-2  c-1.7-1.3-2.9-3.2-3.7-5.6c-0.8-2.4-1.2-5.4-1.2-8.8C504.5,47,504.9,44,505.6,41.6z"></path>	<path class="st0" d="M594,63.4c-2.4,1-4.7,1.8-7.1,2.5c-2.3,0.7-4.8,1-7.3,1c-2.8,0-5.1-0.6-6.9-1.9c-1.8-1.2-3.2-3.1-4.1-5.5  c-0.9-2.4-1.4-5.4-1.4-9c0-2.6,0.3-5,0.8-7.1c0.5-2.1,1.3-3.8,2.3-5.3c1-1.4,2.2-2.5,3.6-3.3c1.4-0.8,3-1.1,4.8-1.1  c2.4,0,4.6,0.3,6.7,1c2.1,0.7,4.2,1.5,6.3,2.5l4.7-12c-2.9-1.4-5.8-2.4-8.9-3c-3-0.6-5.9-0.9-8.6-0.9c-4.4,0-8.3,0.7-11.7,2.1  c-3.4,1.4-6.3,3.5-8.6,6.1c-2.3,2.6-4.1,5.7-5.3,9.3c-1.2,3.6-1.8,7.5-1.8,11.8c0,5.7,0.9,10.7,2.8,15.1c1.8,4.3,4.7,7.7,8.6,10.2  c3.9,2.4,8.9,3.7,15.1,3.7c2.9,0,5.7-0.2,8.3-0.7c2.6-0.5,5.2-1.3,7.7-2.4V63.4z"></path>	<rect x="605" y="22.2" class="st0" width="15.4" height="56.5"></rect>	<path class="st0" d="M646.1,68.1h18.4l2.8,10.6h16.7L665.3,22h-20.4l-18.4,56.8h16.8L646.1,68.1z M651.7,46.3  c0.3-1.2,0.7-2.8,1.2-4.6c0.5-1.9,0.9-3.7,1.3-5.6c0.4-1.9,0.8-3.5,1-4.8c0.3,1.3,0.6,2.9,1.1,4.9c0.5,2,1,3.9,1.5,5.8  c0.5,1.9,0.9,3.3,1.1,4.3l2.4,9.3h-12L651.7,46.3z"></path>	<polygon class="st0" points="727.1,66.4 705.3,66.4 705.3,22.2 690.1,22.2 690.1,78.7 727.1,78.7  "></polygon>	<polygon class="st0" points="736.2,78.7 769.7,78.7 769.7,66.3 751.4,66.3 751.4,55.6 768.4,55.6 768.4,43.3 751.4,43.3   751.4,34.4 769.7,34.4 769.7,22.2 736.2,22.2  "></polygon>	<path class="st0" d="M787.6,79.1c1.9,0.2,4.2,0.3,6.8,0.3c5.2,0,9.4-0.9,12.6-2.6c3.3-1.7,5.7-3.9,7.2-6.7c1.5-2.7,2.3-5.7,2.3-8.7  c0-2.9-0.5-5.4-1.5-7.4c-1-2-2.5-3.7-4.4-5.1s-4.3-2.8-7-4c-2.8-1.3-5-2.3-6.6-3.2c-1.6-0.8-2.8-1.6-3.4-2.3c-0.7-0.7-1-1.5-1-2.4  c0-0.7,0.2-1.3,0.6-1.9c0.4-0.5,1-1,1.9-1.3c0.8-0.3,1.9-0.5,3.2-0.5c2,0,4.2,0.3,6.5,1c2.3,0.7,4.7,1.5,7.2,2.6l4.7-11.8  c-2.3-1.1-5-2-7.9-2.8c-3-0.8-6.3-1.2-10-1.2c-4.2,0-7.9,0.6-11.1,1.9c-3.2,1.2-5.7,3.1-7.5,5.5c-1.8,2.5-2.7,5.5-2.7,9.1  c0,2.4,0.3,4.5,1,6.3c0.6,1.8,1.6,3.3,2.8,4.7c1.2,1.3,2.6,2.5,4.3,3.5c1.7,1,3.6,2,5.7,3c2.4,1.1,4.4,2,5.9,2.8  c1.5,0.7,2.6,1.5,3.3,2.1c0.7,0.7,1,1.5,1,2.5c0,0.8-0.2,1.6-0.7,2.2c-0.5,0.6-1.2,1.1-2.1,1.5c-1,0.4-2.2,0.5-3.7,0.5  c-2.5,0-5.3-0.4-8.5-1.2c-3.1-0.8-6.2-2-9.3-3.5v13.6c1.8,0.9,3.5,1.5,5.2,2.1C783.9,78.5,785.7,78.9,787.6,79.1z"></path>	<polygon class="st0" points="841.8,34.7 855.6,34.7 855.6,78.7 870.8,78.7 870.8,34.7 884.6,34.7 884.6,22.2 841.8,22.2  "></polygon>	<polygon class="st0" points="926.2,66.3 908,66.3 908,55.6 924.9,55.6 924.9,43.3 908,43.3 908,34.4 926.2,34.4 926.2,22.2   892.7,22.2 892.7,78.7 926.2,78.7  "></polygon>	<path class="st1" d="M972,60h4.3c4,0,7.4-0.5,10.1-1.6s4.9-2.6,6.6-4.4c1.7-1.9,2.9-4,3.6-6.3c0.7-2.4,1.1-4.8,1.1-7.4  c0-5.7-1.8-10.2-5.4-13.3c-3.6-3.1-8.9-4.7-16.1-4.7h-19.6v56.5H972V60z M972,34.5h3.9c2.2,0,3.9,0.6,4.9,1.7  c1.1,1.1,1.6,2.6,1.6,4.4c0,1.7-0.3,3.1-1,4.1c-0.7,1-1.6,1.8-2.7,2.2c-1.1,0.5-2.4,0.7-3.7,0.7h-3V34.5z"></path>	<path class="st1" d="M1019.1,22l-18.4,56.8h16.8l2.9-10.6h18.4l2.8,10.6h16.7L1039.5,22H1019.1z M1023.5,55.6l2.4-9.3  c0.3-1.2,0.7-2.8,1.2-4.6c0.5-1.9,0.9-3.7,1.3-5.6c0.4-1.9,0.8-3.5,1-4.8c0.3,1.3,0.6,2.9,1.1,4.9c0.5,2,1,3.9,1.5,5.8  c0.5,1.9,0.9,3.3,1.1,4.3l2.4,9.3H1023.5z"></path>	<path class="st1" d="M1101.3,78.5c3.8-0.6,7.1-1.5,10-2.5V45.6h-24.4v11.8h10.1v8.9c-0.7,0.2-1.7,0.3-3,0.5  c-1.3,0.1-2.4,0.2-3.3,0.2c-2.7,0-5.1-0.6-7-1.9c-1.9-1.3-3.4-3.1-4.4-5.5c-1-2.4-1.5-5.4-1.5-8.9c0-3.1,0.5-5.9,1.4-8.4  c0.9-2.5,2.4-4.6,4.5-6.1c2-1.5,4.8-2.3,8.1-2.3c2.5,0,4.9,0.3,7.1,0.8c2.2,0.5,4.3,1.3,6.3,2.3l4.8-12c-2.3-1-5.1-1.9-8.3-2.6  c-3.2-0.7-6.5-1-10.1-1c-6.4,0-11.8,1.2-16.3,3.5s-7.8,5.7-10,10c-2.3,4.3-3.4,9.4-3.4,15.4c0,6.6,1.1,12.1,3.4,16.4  c2.3,4.3,5.5,7.5,9.6,9.6c4.1,2.1,8.9,3.2,14.3,3.2C1093.6,79.5,1097.6,79.2,1101.3,78.5z"></path>	<path class="st1" d="M1155.6,22h-20.4l-18.4,56.8h16.8l2.9-10.6h18.4l2.8,10.6h16.7L1155.6,22z M1139.6,55.6l2.4-9.3  c0.3-1.2,0.7-2.8,1.2-4.6c0.5-1.9,0.9-3.7,1.3-5.6c0.4-1.9,0.8-3.5,1-4.8c0.3,1.3,0.6,2.9,1.1,4.9c0.5,2,1,3.9,1.5,5.8  c0.5,1.9,0.9,3.3,1.1,4.3l2.4,9.3H1139.6z"></path>	<path class="st1" d="M1234.2,22.2h-13.6v25.6c0,1.3,0,2.8,0.1,4.4c0.1,1.7,0.1,3.3,0.2,5c0.1,1.6,0.2,3.1,0.2,4.3h-0.2l-20.6-39.3  h-20v56.5h13.5V53.2c0-1.4,0-3-0.1-4.8c-0.1-1.8-0.2-3.5-0.3-5.2c-0.1-1.7-0.2-3.2-0.3-4.4h0.3l20.6,39.8h20V22.2z"></path>	<path class="st1" d="M1278.5,42.4c0.5-0.5,1.1-1,1.7-1.6c0.6-0.6,1.2-1.3,1.9-2c-0.1,1.3-0.1,2.8-0.2,4.5c0,1.7-0.1,3.2-0.1,4.6  c0,1.4,0,2.3,0,2.8v28h15.5V22.2h-13.8L1264.1,38l7.9,9.7L1278.5,42.4z"></path>	<path class="st1" d="M1347.5,70.6c1.7-2.9,2.5-6.5,2.5-10.7c0-3.9-0.8-7.2-2.3-9.9c-1.5-2.7-3.6-4.8-6.2-6.2  c-2.6-1.4-5.4-2.1-8.6-2.1c-1.9,0-3.3,0.1-4.1,0.2s-1.7,0.3-2.5,0.5l0.7-7.5h19.3V22.2H1314l-2.1,29.9l5.6,2.8  c1-0.3,2.2-0.6,3.6-0.9c1.4-0.3,2.8-0.4,4.2-0.4c3.1,0,5.5,0.6,7,1.8c1.5,1.2,2.3,2.9,2.3,5c0,1.5-0.3,2.8-1,3.9  c-0.7,1.1-1.7,1.9-3,2.4c-1.3,0.5-2.9,0.8-4.8,0.8c-2.3,0-4.9-0.4-7.7-1.1c-2.8-0.7-5.2-1.6-7.2-2.5v12.5c2.1,1,4.5,1.8,7.2,2.3  s5.7,0.8,9,0.8c5.2,0,9.4-0.8,12.8-2.3C1343.3,75.7,1345.8,73.5,1347.5,70.6z"></path>	<path class="st1" d="M1412.8,62.3h-0.3l-11.8-40.1h-20.3v56.5h13.5V54.2c0-1.9-0.1-3.9-0.2-6c-0.1-2.1-0.2-4-0.3-5.8  c-0.1-1.8-0.2-3.2-0.3-4.3h0.3l11.6,40.7h14.5l11.4-40.6h0.3c-0.1,1.1-0.2,2.5-0.3,4.3c-0.1,1.8-0.2,3.8-0.2,5.8s-0.1,4-0.1,5.7  v24.8h14V22.2h-20.4L1412.8,62.3z"></path>	<rect x="1456.9" y="22.2" class="st1" width="15.4" height="56.5"></rect>	<polygon class="st1" points="1499.8,22.2 1484.5,22.2 1484.5,78.7 1521.5,78.7 1521.5,66.4 1499.8,66.4  "></polygon>	<path class="st1" d="M1586.2,25.3c-4.2-2.1-9.4-3.1-15.5-3.1h-19.6v56.5h18.3c6,0,11.2-1.1,15.7-3.3c4.4-2.2,7.9-5.4,10.3-9.8  c2.4-4.4,3.7-9.8,3.7-16.4c0-5.8-1.1-10.7-3.3-14.8S1590.4,27.4,1586.2,25.3z M1580,62.1c-2.2,2.7-5.6,4-10.2,4h-3.4V34.5h4.4  c2.8,0,5.1,0.6,6.9,1.7c1.8,1.1,3.2,2.8,4.1,5.1c0.9,2.3,1.4,5.1,1.4,8.5C1583.3,55.3,1582.2,59.5,1580,62.1z"></path>	<path class="st1" d="M1640.8,15.4c1.5-1,3.1-2.1,4.7-3.3c1.6-1.1,3.1-2.3,4.6-3.3c1.4-1.1,2.6-2,3.6-2.7V5.3H1637  c-0.9,1.2-1.9,2.5-3.2,3.9c-1.3,1.4-2.5,2.8-3.8,4.2c-1.3,1.4-2.3,2.5-3.2,3.5V18h10.1C1638,17.3,1639.3,16.4,1640.8,15.4z"></path>	<path class="st1" d="M1650.5,24.9c-4-2.4-9.3-3.6-15.7-3.6c-6.3,0-11.5,1.2-15.6,3.6c-4.1,2.4-7.1,5.7-9,10.1  c-1.9,4.3-2.9,9.5-2.9,15.3c0,4.4,0.5,8.4,1.6,12c1.1,3.6,2.7,6.7,5,9.2c2.2,2.6,5.1,4.5,8.6,5.9c3.5,1.4,7.6,2.1,12.3,2.1  c4.8,0,9-0.7,12.5-2.1s6.3-3.4,8.5-5.9c2.2-2.6,3.8-5.7,4.9-9.2c1-3.6,1.6-7.5,1.6-11.9c0-5.9-0.9-11-2.8-15.4  C1657.5,30.7,1654.5,27.3,1650.5,24.9z M1645,59.2c-0.7,2.4-1.9,4.3-3.6,5.6c-1.7,1.3-3.9,2-6.7,2c-2.7,0-4.9-0.7-6.6-2  c-1.7-1.3-2.9-3.2-3.7-5.6c-0.8-2.4-1.2-5.4-1.2-8.8c0-3.4,0.4-6.3,1.1-8.8c0.8-2.5,2-4.4,3.7-5.7c1.7-1.3,3.9-2,6.7-2  c4.2,0,7.1,1.5,8.8,4.4c1.7,3,2.6,7,2.6,12.1C1646.1,53.8,1645.7,56.7,1645,59.2z"></path>	<polygon class="st1" points="1687.7,22.2 1672.4,22.2 1672.4,78.7 1709.4,78.7 1709.4,66.4 1687.7,66.4  "></polygon>	<path class="st1" d="M1730.8,22l-18.4,56.8h16.8l2.9-10.6h18.4l2.8,10.6h16.7L1751.2,22H1730.8z M1735.2,55.6l2.4-9.3  c0.3-1.2,0.7-2.8,1.2-4.6c0.5-1.9,0.9-3.7,1.3-5.6c0.4-1.9,0.8-3.5,1-4.8c0.3,1.3,0.6,2.9,1.1,4.9c0.5,2,1,3.9,1.5,5.8  c0.5,1.9,0.9,3.3,1.1,4.3l2.4,9.3H1735.2z"></path>	<path class="st1" d="M1813.1,50.2c1.4-1.5,2.5-3.2,3.3-5c0.8-1.9,1.2-4,1.2-6.3c0-3.7-0.9-6.8-2.6-9.2c-1.7-2.5-4.3-4.3-7.7-5.6  c-3.4-1.3-7.7-1.9-12.8-1.9H1776v56.5h15.3V58.1h3.9l12,20.6h17.3L1808,54.1C1809.9,53,1811.6,51.7,1813.1,50.2z M1799.9,45.1  c-1.5,1-3.4,1.5-5.8,1.5h-2.9V33.7h3c2.8,0,4.8,0.5,6,1.5c1.2,1,1.9,2.5,1.9,4.3C1802.1,42.2,1801.4,44.1,1799.9,45.1z"></path>	<polygon class="st1" points="1829.6,78.7 1863.1,78.7 1863.1,66.3 1844.8,66.3 1844.8,55.6 1861.8,55.6 1861.8,43.3 1844.8,43.3   1844.8,34.4 1863.1,34.4 1863.1,22.2 1829.6,22.2  "></polygon>	<path class="st1" d="M1904,49c-1.9-1.4-4.3-2.8-7-4c-2.8-1.3-5-2.3-6.6-3.2c-1.6-0.8-2.8-1.6-3.4-2.3c-0.7-0.7-1-1.5-1-2.4  c0-0.7,0.2-1.3,0.6-1.9c0.4-0.5,1-1,1.9-1.3c0.8-0.3,1.9-0.5,3.2-0.5c2,0,4.2,0.3,6.5,1c2.3,0.7,4.7,1.5,7.2,2.6l4.7-11.8  c-2.3-1.1-5-2-7.9-2.8c-3-0.8-6.3-1.2-10-1.2c-4.2,0-7.9,0.6-11.1,1.9s-5.7,3.1-7.5,5.5c-1.8,2.5-2.7,5.5-2.7,9.1  c0,2.4,0.3,4.5,1,6.3c0.6,1.8,1.6,3.3,2.8,4.7c1.2,1.3,2.6,2.5,4.3,3.5c1.7,1,3.6,2,5.7,3c2.4,1.1,4.4,2,5.9,2.8  c1.5,0.7,2.6,1.5,3.3,2.1c0.7,0.7,1,1.5,1,2.5c0,0.8-0.2,1.6-0.7,2.2c-0.5,0.6-1.2,1.1-2.1,1.5c-1,0.4-2.2,0.5-3.7,0.5  c-2.5,0-5.3-0.4-8.5-1.2c-3.1-0.8-6.2-2-9.3-3.5v13.6c1.8,0.9,3.5,1.5,5.2,2.1c1.7,0.5,3.5,0.9,5.4,1.1c1.9,0.2,4.2,0.3,6.8,0.3  c5.2,0,9.4-0.9,12.6-2.6c3.3-1.7,5.7-3.9,7.2-6.7c1.5-2.7,2.3-5.7,2.3-8.7c0-2.9-0.5-5.4-1.5-7.4C1907.5,52.1,1906,50.4,1904,49z"></path>	<path class="st0" d="M499.7,129.1c0.8-0.3,1.9-0.5,3.2-0.5c2,0,4.2,0.3,6.5,1c2.3,0.7,4.7,1.5,7.2,2.6l4.7-11.8  c-2.3-1.1-5-2-7.9-2.8c-3-0.8-6.3-1.2-10-1.2c-4.2,0-7.9,0.6-11.1,1.9c-3.2,1.2-5.7,3.1-7.5,5.5c-1.8,2.5-2.7,5.5-2.7,9.1  c0,2.4,0.3,4.5,1,6.3c0.6,1.8,1.6,3.3,2.8,4.7c1.2,1.3,2.6,2.5,4.3,3.5c1.7,1,3.6,2,5.7,3c2.4,1.1,4.4,2,5.9,2.8  c1.5,0.7,2.6,1.5,3.3,2.1c0.7,0.7,1,1.5,1,2.5c0,0.8-0.2,1.6-0.7,2.2c-0.5,0.6-1.2,1.1-2.1,1.5c-1,0.4-2.2,0.5-3.7,0.5  c-2.5,0-5.3-0.4-8.5-1.2c-3.1-0.8-6.2-2-9.3-3.5V171c1.8,0.9,3.5,1.5,5.2,2.1c1.7,0.5,3.5,0.9,5.4,1.1c1.9,0.2,4.2,0.3,6.8,0.3  c5.2,0,9.4-0.9,12.6-2.6c3.3-1.7,5.7-3.9,7.2-6.7c1.5-2.7,2.3-5.7,2.3-8.7c0-2.9-0.5-5.4-1.5-7.4c-1-2-2.5-3.7-4.4-5.1  s-4.3-2.8-7-4c-2.8-1.3-5-2.3-6.6-3.2c-1.6-0.8-2.8-1.6-3.4-2.3c-0.7-0.7-1-1.5-1-2.4c0-0.7,0.2-1.3,0.6-1.9  C498.3,129.9,498.9,129.4,499.7,129.1z"></path>	<path class="st0" d="M561.5,110.4c1.5-1,3.1-2.1,4.7-3.3c1.6-1.1,3.1-2.3,4.6-3.3c1.4-1.1,2.6-2,3.6-2.7v-0.8h-16.5  c-0.9,1.2-1.9,2.5-3.2,3.9c-1.3,1.4-2.5,2.8-3.8,4.2c-1.3,1.4-2.3,2.5-3.2,3.5v1.1h10.1C558.7,112.3,560,111.5,561.5,110.4z"></path>	<path class="st0" d="M571.2,119.9c-4-2.4-9.3-3.6-15.7-3.6c-6.3,0-11.5,1.2-15.6,3.6c-4.1,2.4-7.1,5.7-9,10.1  c-1.9,4.3-2.9,9.5-2.9,15.3c0,4.4,0.5,8.4,1.6,12c1.1,3.6,2.7,6.7,5,9.2c2.2,2.6,5.1,4.5,8.6,5.9c3.5,1.4,7.6,2.1,12.3,2.1  c4.8,0,9-0.7,12.5-2.1c3.5-1.4,6.3-3.4,8.5-5.9c2.2-2.6,3.8-5.7,4.9-9.2c1-3.6,1.6-7.5,1.6-11.9c0-5.9-0.9-11-2.8-15.4  C578.2,125.7,575.3,122.3,571.2,119.9z M565.8,154.2c-0.7,2.4-1.9,4.3-3.6,5.6c-1.7,1.3-3.9,2-6.7,2c-2.7,0-4.9-0.7-6.6-2  c-1.7-1.3-2.9-3.2-3.7-5.6c-0.8-2.4-1.2-5.4-1.2-8.8c0-3.4,0.4-6.3,1.1-8.8c0.8-2.5,2-4.4,3.7-5.7c1.7-1.3,3.9-2,6.7-2  c4.2,0,7.1,1.5,8.8,4.4c1.7,3,2.6,7,2.6,12.1C566.9,148.8,566.5,151.7,565.8,154.2z"></path>	<polygon class="st0" points="608.4,117.2 593.2,117.2 593.2,173.7 630.2,173.7 630.2,161.4 608.4,161.4  "></polygon>	<path class="st0" d="M680.4,119.9c-4-2.4-9.3-3.6-15.7-3.6c-6.3,0-11.5,1.2-15.6,3.6c-4.1,2.4-7.1,5.7-9,10.1  c-1.9,4.3-2.9,9.5-2.9,15.3c0,4.4,0.5,8.4,1.6,12c1.1,3.6,2.7,6.7,5,9.2c2.2,2.6,5.1,4.5,8.6,5.9c3.5,1.4,7.6,2.1,12.3,2.1  c4.8,0,9-0.7,12.5-2.1c3.5-1.4,6.3-3.4,8.5-5.9c2.2-2.6,3.8-5.7,4.9-9.2c1-3.6,1.6-7.5,1.6-11.9c0-5.9-0.9-11-2.8-15.4  C687.4,125.7,684.5,122.3,680.4,119.9z M675,154.2c-0.7,2.4-1.9,4.3-3.6,5.6c-1.7,1.3-3.9,2-6.7,2c-2.7,0-4.9-0.7-6.6-2  c-1.7-1.3-2.9-3.2-3.7-5.6c-0.8-2.4-1.2-5.4-1.2-8.8c0-3.4,0.4-6.3,1.1-8.8c0.8-2.5,2-4.4,3.7-5.7c1.7-1.3,3.9-2,6.7-2  c4.2,0,7.1,1.5,8.8,4.4c1.7,3,2.6,7,2.6,12.1C676.1,148.8,675.7,151.7,675,154.2z"></path>	<path class="st0" d="M758.6,121.9c-3.6-3.1-8.9-4.7-16.1-4.7h-19.6v56.5h15.3V155h4.3c4,0,7.4-0.5,10.2-1.6  c2.7-1.1,4.9-2.6,6.6-4.4c1.7-1.9,2.9-4,3.6-6.3c0.7-2.4,1.1-4.8,1.1-7.4C764,129.4,762.2,125,758.6,121.9z M747.6,139.7  c-0.7,1-1.6,1.8-2.7,2.2c-1.1,0.5-2.4,0.7-3.7,0.7h-3v-13h3.9c2.2,0,3.9,0.6,4.9,1.7c1.1,1.1,1.6,2.6,1.6,4.4  C748.6,137.3,748.3,138.6,747.6,139.7z"></path>	<path class="st0" d="M814.2,119.9c-4-2.4-9.3-3.6-15.7-3.6c-6.3,0-11.5,1.2-15.6,3.6c-4.1,2.4-7.1,5.7-9,10.1  c-1.9,4.3-2.9,9.5-2.9,15.3c0,4.4,0.5,8.4,1.6,12c1.1,3.6,2.7,6.7,5,9.2c2.2,2.6,5.1,4.5,8.6,5.9c3.5,1.4,7.6,2.1,12.3,2.1  c4.8,0,9-0.7,12.5-2.1c3.5-1.4,6.3-3.4,8.5-5.9c2.2-2.6,3.8-5.7,4.9-9.2c1-3.6,1.6-7.5,1.6-11.9c0-5.9-0.9-11-2.8-15.4  C821.2,125.7,818.2,122.3,814.2,119.9z M808.7,154.2c-0.7,2.4-1.9,4.3-3.6,5.6c-1.7,1.3-3.9,2-6.7,2c-2.7,0-4.9-0.7-6.6-2  c-1.7-1.3-2.9-3.2-3.7-5.6c-0.8-2.4-1.2-5.4-1.2-8.8c0-3.4,0.4-6.3,1.1-8.8c0.8-2.5,2-4.4,3.7-5.7c1.7-1.3,3.9-2,6.7-2  c4.2,0,7.1,1.5,8.8,4.4c1.7,3,2.6,7,2.6,12.1C809.8,148.8,809.4,151.7,808.7,154.2z"></path>	<path class="st0" d="M873.2,145.2c1.4-1.5,2.5-3.2,3.3-5c0.8-1.9,1.2-4,1.2-6.3c0-3.7-0.9-6.8-2.6-9.2c-1.7-2.5-4.3-4.3-7.7-5.6  c-3.4-1.3-7.7-1.9-12.8-1.9h-18.5v56.5h15.3v-20.6h3.9l12,20.6h17.3L868,149.1C870,148,871.7,146.7,873.2,145.2z M860,140.1  c-1.5,1-3.4,1.5-5.8,1.5h-2.9v-12.9h3c2.8,0,4.8,0.5,6,1.5c1.2,1,1.9,2.5,1.9,4.3C862.2,137.3,861.5,139.1,860,140.1z"></path>	<path class="st0" d="M934.1,146c-0.3,1.1-0.6,2.5-1,4.1s-0.7,3.3-0.9,5c-0.3,1.6-0.5,3-0.6,4.1c-0.1-1.1-0.3-2.4-0.6-4.1  c-0.3-1.7-0.7-3.4-1-5c-0.4-1.7-0.7-3.1-1-4.2l-7.7-28.7h-17.2l18.4,56.5h18l18.5-56.5H942L934.1,146z"></path>	<polygon class="st0" points="965.2,173.7 998.7,173.7 998.7,161.3 980.5,161.3 980.5,150.6 997.4,150.6 997.4,138.4 980.5,138.4   980.5,129.5 998.7,129.5 998.7,117.2 965.2,117.2  "></polygon>	<path class="st0" d="M1045.7,145.2c1.4-1.5,2.5-3.2,3.3-5c0.8-1.9,1.2-4,1.2-6.3c0-3.7-0.9-6.8-2.6-9.2c-1.7-2.5-4.3-4.3-7.7-5.6  c-3.4-1.3-7.7-1.9-12.8-1.9h-18.5v56.5h15.3v-20.6h3.9l12,20.6h17.3l-16.5-24.6C1042.6,148,1044.3,146.7,1045.7,145.2z   M1032.5,140.1c-1.5,1-3.4,1.5-5.8,1.5h-2.9v-12.9h3c2.8,0,4.8,0.5,6,1.5c1.2,1,1.9,2.5,1.9,4.3  C1034.8,137.3,1034,139.1,1032.5,140.1z"></path>	<path class="st0" d="M1106.7,146c-0.3,1.1-0.6,2.5-1,4.1c-0.3,1.7-0.7,3.3-0.9,5c-0.3,1.6-0.5,3-0.6,4.1c-0.1-1.1-0.3-2.4-0.6-4.1  c-0.3-1.7-0.7-3.4-1-5c-0.4-1.7-0.7-3.1-1-4.2l-7.7-28.7h-17.2l18.4,56.5h18l18.5-56.5h-17.1L1106.7,146z"></path>	<rect x="1137.8" y="117.2" class="st0" width="15.4" height="56.5"></rect>	<path class="st0" d="M1200.4,120.3c-4.2-2.1-9.4-3.1-15.5-3.1h-19.6v56.5h18.3c6,0,11.2-1.1,15.7-3.3c4.4-2.2,7.9-5.4,10.3-9.8  c2.4-4.4,3.7-9.8,3.7-16.4c0-5.8-1.1-10.7-3.3-14.8C1207.8,125.5,1204.6,122.4,1200.4,120.3z M1194.2,157.2c-2.2,2.7-5.6,4-10.2,4  h-3.4v-31.7h4.4c2.8,0,5.1,0.6,6.9,1.7s3.2,2.8,4.1,5.1c0.9,2.3,1.4,5.1,1.4,8.5C1197.5,150.4,1196.4,154.5,1194.2,157.2z"></path>	<polygon class="st0" points="1223.4,173.7 1257,173.7 1257,161.3 1238.7,161.3 1238.7,150.6 1255.7,150.6 1255.7,138.4   1238.7,138.4 1238.7,129.5 1257,129.5 1257,117.2 1223.4,117.2  "></polygon>	<path class="st0" d="M1308.1,119.9c-4-2.4-9.3-3.6-15.7-3.6c-6.3,0-11.5,1.2-15.6,3.6c-4.1,2.4-7.1,5.7-9,10.1  c-1.9,4.3-2.9,9.5-2.9,15.3c0,4.4,0.5,8.4,1.6,12c1.1,3.6,2.7,6.7,5,9.2c2.2,2.6,5.1,4.5,8.6,5.9c3.5,1.4,7.6,2.1,12.3,2.1  c4.8,0,9-0.7,12.5-2.1c3.5-1.4,6.3-3.4,8.5-5.9c2.2-2.6,3.8-5.7,4.9-9.2c1-3.6,1.6-7.5,1.6-11.9c0-5.9-0.9-11-2.8-15.4  C1315.1,125.7,1312.1,122.3,1308.1,119.9z M1302.6,154.2c-0.7,2.4-1.9,4.3-3.6,5.6c-1.7,1.3-3.9,2-6.7,2c-2.7,0-4.9-0.7-6.6-2  c-1.7-1.3-2.9-3.2-3.7-5.6c-0.8-2.4-1.2-5.4-1.2-8.8c0-3.4,0.4-6.3,1.1-8.8c0.8-2.5,2-4.4,3.7-5.7c1.7-1.3,3.9-2,6.7-2  c4.2,0,7.1,1.5,8.8,4.4c1.7,3,2.6,7,2.6,12.1C1303.7,148.8,1303.4,151.7,1302.6,154.2z"></path>	<path class="st0" d="M1345.4,129.1c0.8-0.3,1.9-0.5,3.2-0.5c2,0,4.2,0.3,6.5,1s4.7,1.5,7.2,2.6l4.7-11.8c-2.3-1.1-5-2-7.9-2.8  c-3-0.8-6.3-1.2-10-1.2c-4.2,0-7.9,0.6-11.1,1.9c-3.2,1.2-5.7,3.1-7.5,5.5c-1.8,2.5-2.7,5.5-2.7,9.1c0,2.4,0.3,4.5,1,6.3  c0.6,1.8,1.6,3.3,2.8,4.7c1.2,1.3,2.6,2.5,4.3,3.5c1.7,1,3.6,2,5.7,3c2.4,1.1,4.4,2,5.9,2.8c1.5,0.7,2.6,1.5,3.3,2.1  c0.7,0.7,1,1.5,1,2.5c0,0.8-0.2,1.6-0.7,2.2c-0.5,0.6-1.2,1.1-2.1,1.5c-1,0.4-2.2,0.5-3.7,0.5c-2.5,0-5.3-0.4-8.5-1.2  s-6.2-2-9.3-3.5V171c1.8,0.9,3.5,1.5,5.2,2.1c1.7,0.5,3.5,0.9,5.4,1.1s4.2,0.3,6.8,0.3c5.2,0,9.4-0.9,12.6-2.6  c3.3-1.7,5.7-3.9,7.2-6.7c1.5-2.7,2.3-5.7,2.3-8.7c0-2.9-0.5-5.4-1.5-7.4c-1-2-2.5-3.7-4.4-5.1s-4.3-2.8-7-4  c-2.8-1.3-5-2.3-6.6-3.2c-1.6-0.8-2.8-1.6-3.4-2.3c-0.7-0.7-1-1.5-1-2.4c0-0.7,0.2-1.3,0.6-1.9  C1343.9,129.9,1344.5,129.4,1345.4,129.1z"></path>	<path class="st0" d="M1386.7,161.6c-1.6-1.1-3.4-1.7-5.6-1.7c-2.3,0-4.2,0.6-5.8,1.7c-1.6,1.1-2.4,3-2.4,5.8c0,2.6,0.8,4.5,2.4,5.6  s3.6,1.7,5.8,1.7c2.1,0,4-0.6,5.6-1.7s2.4-3,2.4-5.6C1389.1,164.6,1388.3,162.7,1386.7,161.6z"></path>	<path class="st0" d="M1409.6,161.6c-1.6-1.1-3.4-1.7-5.6-1.7c-2.3,0-4.2,0.6-5.8,1.7c-1.6,1.1-2.4,3-2.4,5.8c0,2.6,0.8,4.5,2.4,5.6  s3.6,1.7,5.8,1.7c2.1,0,4-0.6,5.6-1.7s2.4-3,2.4-5.6C1412,164.6,1411.2,162.7,1409.6,161.6z"></path>	<path class="st0" d="M1432.5,161.6c-1.6-1.1-3.4-1.7-5.6-1.7c-2.3,0-4.2,0.6-5.8,1.7c-1.6,1.1-2.4,3-2.4,5.8c0,2.6,0.8,4.5,2.4,5.6  c1.6,1.2,3.6,1.7,5.8,1.7c2.1,0,4-0.6,5.6-1.7s2.4-3,2.4-5.6C1434.9,164.6,1434.1,162.7,1432.5,161.6z"></path></g></svg>